<svg width="200" height="60" viewBox="0 0 200 60" fill="none" xmlns="http://www.w3.org/2000/svg">
<path d="M117.279 42.534C109.01 48.6289 97.0245 51.8809 86.7042 51.8809C72.2347 51.8809 59.2079 46.5292 49.3533 37.6282C48.579 36.9283 49.2728 35.9744 50.2019 36.5195C60.8371 42.7075 73.9866 46.4301 87.5717 46.4301C96.7328 46.4301 106.811 44.5347 116.077 40.6014C117.477 40.0068 118.647 41.5182 117.279 42.534" fill="#919191"/>
<path d="M120.716 38.6025C119.663 37.2522 113.729 37.9645 111.066 38.2804C110.255 38.3795 110.131 37.6734 110.862 37.1655C115.588 33.8394 123.343 34.7993 124.247 35.9143C125.151 37.0354 124.012 44.8089 119.571 48.5192C118.889 49.0891 118.239 48.7855 118.542 48.0299C119.54 45.5399 121.776 39.9589 120.716 38.6025Z" fill="#919191"/>
<path d="M111.252 13.6828V10.4496C111.252 9.96025 111.623 9.63196 112.069 9.63196H126.545C127.009 9.63196 127.381 9.96644 127.381 10.4496V13.2183C127.375 13.6829 126.985 14.2899 126.291 15.25L118.79 25.9596C121.577 25.8915 124.519 26.3065 127.046 27.7311C127.616 28.0532 127.771 28.524 127.814 28.9885V32.4387C127.814 32.9094 127.294 33.4607 126.749 33.1758C122.295 30.8406 116.38 30.5865 111.456 33.2005C110.954 33.4731 110.428 32.928 110.428 32.4572V29.1805C110.428 28.654 110.434 27.7559 110.96 26.9568L119.651 14.4944H112.088C111.623 14.4944 111.252 14.166 111.252 13.6828Z" fill="#919191"/>
<path d="M58.4465 33.856H54.0425C53.6213 33.8251 53.2868 33.5092 53.2559 33.1066V10.5044C53.2559 10.0522 53.6337 9.69298 54.1044 9.69298H58.2112C58.6386 9.71155 58.9793 10.0398 59.0102 10.4486V13.4031H59.0908C60.1623 10.5476 62.1754 9.21582 64.8884 9.21582C67.6447 9.21582 69.3668 10.5475 70.6055 13.4031C71.6709 10.5476 74.0928 9.21582 76.6881 9.21582C78.534 9.21582 80.5532 9.9777 81.7858 11.6874C83.1794 13.589 82.8945 16.3515 82.8945 18.7734L82.8883 33.0383C82.8883 33.4905 82.5105 33.8559 82.0397 33.8559H77.6419C77.2021 33.8249 76.8491 33.4719 76.8491 33.0383V21.059C76.8491 20.1051 76.9358 17.7265 76.7252 16.8223C76.3969 15.3048 75.4121 14.8774 74.136 14.8774C73.0706 14.8774 71.9557 15.5897 71.5035 16.7294C71.0514 17.8691 71.0947 19.777 71.0947 21.0592V33.0385C71.0947 33.4906 70.7169 33.8561 70.2461 33.8561H65.8483C65.4024 33.8251 65.0555 33.4721 65.0555 33.0385L65.0493 21.0592C65.0493 18.5382 65.4643 14.828 62.3363 14.828C59.171 14.828 59.2951 18.4454 59.2951 21.0592V33.0385C59.2951 33.4906 58.9172 33.856 58.4465 33.856Z" fill="#919191"/>
<path d="M139.842 9.21692C146.377 9.21692 149.914 14.8287 149.914 21.9643C149.914 28.8582 146.005 34.3277 139.842 34.3277C133.425 34.3277 129.932 28.716 129.932 21.7228C129.932 14.6864 133.469 9.21692 139.842 9.21692ZM139.879 13.8316C136.634 13.8316 136.429 18.2542 136.429 21.0105C136.429 23.7731 136.386 29.6698 139.842 29.6698C143.255 29.6698 143.416 24.9126 143.416 22.0139C143.416 20.1061 143.335 17.8266 142.759 16.018C142.264 14.4447 141.279 13.8315 139.879 13.8315" fill="#919191"/>
<path d="M158.389 33.8561H154.003C153.563 33.8251 153.21 33.4721 153.21 33.0385L153.204 10.4302C153.241 10.0152 153.607 9.69306 154.053 9.69306H158.135C158.519 9.71163 158.835 9.9718 158.921 10.3249V13.7812H159.002C160.234 10.6904 161.963 9.21606 165.004 9.21606C166.98 9.21606 168.906 9.92838 170.145 11.8795C171.297 13.6881 171.297 16.7295 171.297 18.9159V33.1437C171.247 33.5401 170.882 33.856 170.448 33.856H166.032C165.629 33.825 165.295 33.5277 165.252 33.1437V20.8669C165.252 18.3954 165.536 14.7782 162.495 14.7782C161.423 14.7782 160.439 15.4967 159.949 16.5869C159.33 17.9681 159.249 19.3433 159.249 20.867V33.0384C159.243 33.4905 158.859 33.856 158.388 33.856" fill="#919191"/>
<path d="M99.7118 23.0607V22.1068C96.5282 22.1068 93.1647 22.7881 93.1647 26.5417C93.1647 28.4433 94.1496 29.7317 95.8406 29.7317C97.0795 29.7317 98.1882 28.9698 98.8882 27.731C99.7553 26.2073 99.7118 24.7767 99.7118 23.0607ZM104.153 33.795C103.862 34.0551 103.441 34.0737 103.112 33.9003C101.651 32.6862 101.39 32.1226 100.585 30.9642C98.1696 33.4294 96.4602 34.1666 93.3259 34.1666C89.6218 34.1666 86.7354 31.8809 86.7354 27.3036C86.7354 23.7296 88.6741 21.2954 91.4304 20.106C93.8214 19.053 97.16 18.8672 99.7119 18.5761V18.0062C99.7119 16.9594 99.7924 15.7206 99.1792 14.8162C98.6403 14.0048 97.6121 13.6703 96.7077 13.6703C95.0291 13.6703 93.5302 14.5312 93.1647 16.3152C93.0903 16.7117 92.7992 17.1019 92.4028 17.1205L88.1288 16.6621C87.7695 16.5816 87.3731 16.2905 87.4722 15.7392C88.4571 10.561 93.1335 9 97.3208 9C99.464 9 102.264 9.56987 103.955 11.1927C106.098 13.1934 105.893 15.8632 105.893 18.768V25.631C105.893 27.6937 106.748 28.598 107.553 29.713C107.838 30.1094 107.9 30.5863 107.541 30.8836C106.643 31.6331 105.045 33.0268 104.165 33.8072L104.153 33.7948" fill="#919191"/>
<path d="M41.9765 23.0607V22.1068C38.7928 22.1068 35.4294 22.7881 35.4294 26.5417C35.4294 28.4433 36.4142 29.7317 38.1053 29.7317C39.3441 29.7317 40.4528 28.9698 41.1528 27.731C42.02 26.2073 41.9765 24.7767 41.9765 23.0607ZM46.4177 33.795C46.1266 34.0551 45.7054 34.0737 45.3771 33.9003C43.9153 32.6862 43.6551 32.1226 42.85 30.9642C40.4342 33.4294 38.7249 34.1666 35.5906 34.1666C31.8864 34.1666 29 31.8809 29 27.3036C29 23.7296 30.9388 21.2954 33.695 20.106C36.086 19.053 39.4247 18.8672 41.9765 18.5761V18.0062C41.9765 16.9594 42.0571 15.7206 41.4439 14.8162C40.905 14.0048 39.8768 13.6703 38.9723 13.6703C37.2937 13.6703 35.7948 14.5312 35.4293 16.3152C35.355 16.7117 35.0639 17.1019 34.6674 17.1205L30.3934 16.6621C30.0342 16.5816 29.6377 16.2905 29.7368 15.7392C30.7217 10.561 35.3982 9 39.5855 9C41.7286 9 44.5284 9.56987 46.2193 11.1927C48.3625 13.1934 48.1581 15.8632 48.1581 18.768V25.631C48.1581 27.6937 49.0128 28.598 49.8181 29.713C50.103 30.1094 50.1649 30.5863 49.8057 30.8836C48.9075 31.6331 47.3096 33.0268 46.4299 33.8072L46.4176 33.7948" fill="#919191"/>
</svg>
