<svg width="200" height="60" viewBox="0 0 200 60" fill="none" xmlns="http://www.w3.org/2000/svg">
<path d="M60.8518 22.9688H42.7443V28.342H55.5864C54.9519 35.8767 48.6833 39.09 42.766 39.09C35.1956 39.09 28.5895 33.1335 28.5895 24.7848C28.5895 16.6519 34.8868 10.3884 42.7827 10.3884C48.8745 10.3884 52.4641 14.2718 52.4641 14.2718L56.2264 10.3759C56.2264 10.3759 51.3974 5 42.5904 5C31.3767 5 22.7012 14.4652 22.7012 24.6888C22.7012 34.7069 30.8624 44.4755 42.8777 44.4755C53.4454 44.4755 61.1809 37.2362 61.1809 26.5311C61.1809 24.2727 60.853 22.9674 60.853 22.9674L60.8518 22.9688Z" fill="#919191"/>
<path d="M75.6864 19.0776C68.2564 19.0776 62.9316 24.8864 62.9316 31.6611C62.9316 38.5359 68.0964 44.4527 75.7737 44.4527C82.7237 44.4527 88.4176 39.1406 88.4176 31.8088C88.4176 23.4054 81.7944 19.0776 75.6864 19.0776ZM75.7603 24.0613C79.4141 24.0613 82.8765 27.0153 82.8765 31.7752C82.8765 36.4342 79.4289 39.4724 75.7435 39.4724C71.6942 39.4724 68.4997 36.2293 68.4997 31.7383C68.4997 27.3435 71.6546 24.0613 75.7603 24.0613Z" fill="#919191"/>
<path d="M103.427 19.0776C95.9966 19.0776 90.6719 24.8864 90.6719 31.6611C90.6719 38.5359 95.8366 44.4527 103.514 44.4527C110.464 44.4527 116.158 39.1406 116.158 31.8088C116.158 23.4054 109.535 19.0776 103.427 19.0776ZM103.501 24.0613C107.154 24.0613 110.617 27.0153 110.617 31.7752C110.617 36.4342 107.169 39.4724 103.484 39.4724C99.4345 39.4724 96.24 36.2293 96.24 31.7383C96.24 27.3435 99.3949 24.0613 103.501 24.0613Z" fill="#919191"/>
<path d="M130.634 19.09C123.814 19.09 118.453 25.0631 118.453 31.7674C118.453 39.4042 124.668 44.4684 130.516 44.4684C134.132 44.4684 136.055 43.033 137.474 41.3855V43.8873C137.474 48.2647 134.817 50.8859 130.805 50.8859C126.929 50.8859 124.986 48.0043 124.31 46.3691L119.434 48.4076C121.164 52.0653 124.646 55.8797 130.845 55.8797C137.626 55.8797 142.794 51.6087 142.794 42.6514V19.8528H137.475V22.002C135.84 20.2396 133.603 19.0904 130.634 19.0904L130.634 19.09ZM131.127 24.0635C134.471 24.0635 137.904 26.9186 137.904 31.7942C137.904 36.7501 134.478 39.4813 131.053 39.4813C127.418 39.4813 124.034 36.5292 124.034 31.8413C124.034 26.9703 127.548 24.0635 131.127 24.0635Z" fill="#919191"/>
<path d="M166.446 19.0605C160.013 19.0605 154.611 24.1789 154.611 31.7313C154.611 39.7228 160.632 44.4624 167.064 44.4624C172.432 44.4624 175.727 41.5257 177.693 38.8944L173.307 35.9761C172.169 37.7425 170.266 39.4687 167.091 39.4687C163.524 39.4687 161.884 37.5155 160.868 35.6235L177.88 28.5645L176.997 26.4957C175.353 22.4444 171.519 19.0605 166.445 19.0605H166.446ZM166.668 23.9401C168.986 23.9401 170.654 25.1726 171.362 26.6502L160.001 31.3989C159.511 27.7225 162.994 23.9401 166.668 23.9401Z" fill="#919191"/>
<path d="M146.502 43.7092H152.09V6.31213H146.502V43.7092Z" fill="#919191"/>
</svg>
