<svg width="200" height="60" viewBox="0 0 200 60" fill="none" xmlns="http://www.w3.org/2000/svg">
<path d="M18.7658 36.0817C18.7658 38.0937 19.2075 39.6385 19.7847 40.573C20.5415 41.7971 21.6703 42.3157 22.8211 42.3157C24.3054 42.3157 25.6632 41.9474 28.28 38.3283C30.3763 35.4275 32.8465 31.3558 34.5085 28.8031L37.3232 24.4785C39.2784 21.4751 41.5415 18.1364 44.1363 15.8733C46.2546 14.0262 48.5397 13 50.8394 13C54.7004 13 58.3781 15.2374 61.1928 19.4338C64.2732 24.0296 65.7685 29.8183 65.7685 35.7921C65.7685 39.3435 65.0685 41.9529 63.8774 44.0144C62.7266 46.0081 60.4836 48 56.7106 48V42.3157C59.9412 42.3157 60.7475 39.3471 60.7475 35.9497C60.7475 31.1084 59.6187 25.7356 57.1321 21.8966C55.3674 19.1736 53.0805 17.5097 50.5645 17.5097C47.8433 17.5097 45.6535 19.562 43.1925 23.2215C41.8842 25.1657 40.541 27.5351 39.0329 30.2086L37.3727 33.1497C34.0376 39.0631 33.1928 40.4099 31.5253 42.6327C28.6025 46.5249 26.1067 48 22.8211 48C18.9234 48 16.4588 46.3123 14.9323 43.7688C13.6863 41.6963 13.0742 38.977 13.0742 35.8783L18.7658 36.0817Z" fill="#919191"/>
<path d="M17.5625 19.8351C20.1719 15.8128 23.9376 13 28.2567 13C30.7581 13 33.2447 13.7403 35.8413 15.8605C38.6816 18.1785 41.7088 21.9955 45.4855 28.2864L46.8397 30.544C50.1088 35.9901 51.9688 38.7919 53.0573 40.1131C54.4573 41.8099 55.4376 42.3157 56.7112 42.3157C59.9418 42.3157 60.7481 39.3471 60.7481 35.9497L65.7691 35.7921C65.7691 39.3435 65.069 41.9529 63.8779 44.0144C62.7272 46.0081 60.4842 48 56.7112 48C54.3656 48 52.2876 47.4906 49.9897 45.3228C48.2232 43.6589 46.1581 40.7031 44.5693 38.0461L39.8434 30.1518C37.4722 26.1901 35.2971 23.2361 34.0382 21.8984C32.684 20.4599 30.9431 18.7228 28.1651 18.7228C25.9167 18.7228 24.0073 20.3005 22.4094 22.7139L17.5625 19.8351Z" fill="url(#paint0_linear_1016_20)"/>
<path d="M28.1645 18.7228C25.9161 18.7228 24.0067 20.3005 22.4088 22.7139C20.1494 26.1241 18.7658 31.2037 18.7658 36.0817C18.7658 38.0937 19.2075 39.6385 19.7847 40.573L14.9323 43.7689C13.6863 41.6963 13.0742 38.977 13.0742 35.8783C13.0742 30.2435 14.6208 24.3704 17.5619 19.8351C20.1713 15.8128 23.937 13 28.2562 13L28.1645 18.7228Z" fill="url(#paint1_linear_1016_20)"/>
<path d="M76.833 14.1068H83.417L94.6115 34.3592L105.808 14.1068H112.249V47.3843H106.878V21.8801L97.0597 39.5414H92.0204L82.2039 21.8801V47.3843H76.833V14.1068ZM129.078 26.5144C125.226 26.5144 122.907 29.4134 122.351 33.0031H135.424C135.155 29.3052 133.022 26.5144 129.078 26.5144ZM117.026 35.0482C117.026 27.4948 121.908 21.9974 129.172 21.9974C136.317 21.9974 140.582 27.4251 140.582 35.4513V36.9264H122.351C122.998 40.8314 125.589 43.4628 129.767 43.4628C133.101 43.4628 135.184 42.4458 137.159 40.5859L140.013 44.0804C137.324 46.5524 133.905 47.978 129.577 47.978C121.714 47.978 117.026 42.2442 117.026 35.0482ZM147.095 26.9908H142.151V22.5929H147.095V15.3199H152.277V22.5929H159.789V26.9908H152.277V38.1377C152.277 41.9437 153.494 43.2961 156.485 43.2961C157.85 43.2961 158.632 43.1788 159.789 42.9864V47.3367C158.348 47.7435 156.974 47.9304 155.486 47.9304C149.891 47.9304 147.095 44.8738 147.095 38.7552V26.9908ZM181.609 31.2678C180.569 28.6401 178.247 26.705 174.835 26.705C170.4 26.705 167.562 29.8513 167.562 34.9767C167.562 39.9738 170.175 43.2723 174.622 43.2723C178.119 43.2723 180.614 41.2382 181.609 38.7076V31.2678ZM186.792 47.3843H181.705V43.9136C180.283 45.9568 177.695 47.978 173.504 47.978C166.765 47.978 162.26 42.3359 162.26 34.9767C162.26 27.5479 166.873 21.9974 173.79 21.9974C177.21 21.9974 179.892 23.3644 181.705 25.7778V22.5929H186.792V47.3843Z" fill="#919191"/>
<defs>
<linearGradient id="paint0_linear_1016_20" x1="24.2528" y1="34.4398" x2="60.5355" y2="36.2723" gradientUnits="userSpaceOnUse">
<stop stop-color="#919191"/>
<stop offset="0.4" stop-color="#919191"/>
<stop offset="0.83" stop-color="#919191"/>
<stop offset="1" stop-color="#919191"/>
</linearGradient>
<linearGradient id="paint1_linear_1016_20" x1="21.3203" y1="38.4712" x2="21.3203" y2="25.0942" gradientUnits="userSpaceOnUse">
<stop stop-color="#919191"/>
<stop offset="1" stop-color="#919191"/>
</linearGradient>
</defs>
</svg>
