<svg width="200" height="60" viewBox="0 0 200 60" fill="none" xmlns="http://www.w3.org/2000/svg">
<path d="M151.311 28.7578L157.431 45.0006C155.628 44.742 153.825 44.4191 151.988 44.1276L148.54 35.1517L144.997 43.3862C143.257 43.0962 141.548 42.9975 139.809 42.7718L146.027 28.5635L140.39 14.0007H145.609L148.766 22.138L152.149 14.0007H157.431L151.311 28.7578ZM136.266 14.0006H131.53V42.1586C133.076 42.2557 134.688 42.32 136.266 42.5129V14.0006ZM127.439 41.8355C123.123 41.544 118.805 41.2869 114.392 41.1897V14.0004H119.224V36.6044C121.994 36.6687 124.764 36.8944 127.439 37.023V41.8355ZM109.237 25.0125V29.8546H102.634V40.8665H97.8646V14.0002H111.396V18.8439H102.633V25.0121L109.237 25.0125ZM89.7453 18.8443V41.1256C88.1352 41.1256 86.4922 41.1256 84.9135 41.1899V18.8443H79.9202V14.0006H94.7715V18.8443L89.7453 18.8443ZM74.7011 30.1133C72.5753 30.1133 70.0622 30.1133 68.2577 30.2105V37.4117C71.0922 37.2174 73.928 36.9916 76.7942 36.8944V41.5437L63.4244 42.6111V14H76.7942V18.8437H68.2577V25.3663C70.1265 25.3663 72.9938 25.2691 74.7011 25.2691V30.1133ZM47.929 27.4014V44.3217C46.1903 44.5161 44.643 44.7418 43 45.0004V14.0004H47.6075L53.8894 31.5992V14.0004H58.7212V42.9973C57.014 43.2888 55.2753 43.386 53.4378 43.6431L47.929 27.4014Z" fill="#919191"/>
</svg>
