<svg width="200" height="60" viewBox="0 0 200 60" fill="none" xmlns="http://www.w3.org/2000/svg">
<path d="M37.322 51.0447C23.941 51.0402 15 41.5574 15 30.0597C15 18.5621 23.9613 8.97073 37.3017 9.00007H163.365C176.705 8.9706 185.667 18.5621 185.667 30.0597C185.667 41.5574 176.726 51.0401 163.345 51.0447H37.322ZM37.3628 14.1714C26.7695 14.1918 20.2671 21.2721 20.2671 30.0317C20.2671 38.7891 26.7288 45.9284 37.3628 45.8901H163.303C173.937 45.9263 180.401 38.7894 180.401 30.0317C180.401 21.2741 173.898 14.1941 163.305 14.1734L37.3628 14.1714ZM170.079 21.5644C171.043 21.5644 171.521 21.8908 171.521 22.5367C171.521 22.9809 171.244 23.3164 170.784 23.432L171.539 24.9391H170.626L169.98 23.5566H169.579V24.9391H168.756V21.5644L170.079 21.5644ZM170.005 20.2453C168.323 20.2453 166.959 21.6097 166.959 23.2914C166.959 24.9731 168.323 26.3375 170.005 26.3375C171.686 26.3375 173.051 24.9731 173.051 23.2914C173.051 21.6097 171.686 20.2453 170.005 20.2453ZM172.468 23.2937C172.468 24.6535 171.365 25.7573 170.005 25.7573C168.645 25.7573 167.541 24.6535 167.541 23.2937C167.541 21.9338 168.645 20.8301 170.005 20.8301C171.365 20.8301 172.468 21.9316 172.468 23.2937ZM169.579 23.0625H169.98C170.449 23.0625 170.676 22.9197 170.676 22.5843C170.676 22.233 170.433 22.0812 169.939 22.0812H169.579V23.0625ZM100.732 31.3102C100.723 30.1566 100.748 29.386 101.126 28.7287C101.591 27.9173 102.445 27.532 103.22 27.5275H103.218C103.993 27.532 104.848 27.9173 105.312 28.7287C105.691 29.3882 105.707 30.1588 105.698 31.3124L100.732 31.3102ZM105.677 35.2788C105.677 35.2788 105.682 35.3378 105.682 36.0766C105.682 38.4836 104.098 39.0185 103.218 39.0185C102.339 39.0185 100.727 38.4836 100.727 36.0766C100.727 35.3559 100.732 33.3592 100.732 33.3592C100.732 33.3592 111.944 33.3637 111.944 33.3569C111.944 29.2749 108.003 25.8935 103.162 25.8935C98.3206 25.8935 94.3972 29.2025 94.3972 33.2842C94.3972 37.3659 98.3206 40.6729 103.162 40.6729C107.178 40.6729 110.571 38.3815 111.606 35.2742L105.677 35.2788ZM124.405 26.1135C126.631 26.05 131.145 27.5074 131.114 32.7178C131.109 33.6425 131.111 39.8798 131.111 39.8798H125.198V31.2358C125.198 30.089 124.101 28.813 122.479 28.813C120.858 28.813 119.652 30.089 119.652 31.2358C119.652 31.7979 119.659 39.8798 119.659 39.8798H113.75L113.755 26.7188L119.661 26.7143C119.661 26.7143 119.654 27.7727 119.661 28.0991C120.799 27.0135 122.44 26.1702 124.405 26.1135ZM76.0349 26.1135C78.2605 26.05 82.7752 27.5074 82.7436 32.7178C82.739 33.6425 82.7412 39.8798 82.7412 39.8798H76.8282V31.2358C76.8282 30.089 75.7313 28.813 74.1085 28.813C72.488 28.813 71.2823 30.089 71.2823 31.2358C71.2823 31.7979 71.2891 39.8798 71.2891 39.8798H65.3804L65.3781 26.7188L71.2911 26.7143C71.2911 26.7143 71.2843 27.7727 71.2911 28.0991C72.4288 27.0135 74.0676 26.1702 76.0349 26.1135ZM143.942 20.0915H149.816V39.8842H143.933C143.933 39.8842 143.93 39.245 143.93 39.1226C141.652 40.5528 139.082 40.5505 137.081 39.6167C136.544 39.3674 133.011 37.6721 133.011 33.0917C133.011 29.6174 136.288 25.8234 140.578 26.1994C141.99 26.324 142.994 26.8385 143.946 27.3734C143.942 24.3273 143.942 20.0915 143.942 20.0915ZM143.985 33.2368V30.8843C143.985 28.849 142.579 28.33 141.655 28.33C140.707 28.33 139.32 28.849 139.32 30.8843C139.32 31.5597 139.323 33.23 139.323 33.23C139.323 33.23 139.32 34.8709 139.32 35.5713C139.32 37.6043 140.707 38.1369 141.652 38.1369C142.579 38.1369 143.987 37.6043 143.987 35.5713C143.987 34.7259 143.985 33.2368 143.985 33.2368ZM162.844 33.1983C162.844 33.1983 162.841 35.1882 162.841 35.986C162.841 38.0847 161.602 38.9505 160.409 38.9505C159.215 38.9505 157.971 38.0847 157.971 35.986C157.971 35.1882 157.973 33.1484 157.973 33.1484C157.973 33.1484 157.978 31.2016 157.978 30.4038C157.978 28.3141 159.224 27.4552 160.409 27.4552C161.597 27.4552 162.841 28.3141 162.841 30.4038C162.841 31.2016 162.839 32.677 162.846 33.2051L162.844 33.1983ZM160.453 25.8233C155.648 25.8233 151.754 29.1323 151.754 33.214C151.754 37.296 155.65 40.6046 160.453 40.6046C165.257 40.6046 169.151 37.2956 169.151 33.214C169.151 29.132 165.258 25.8233 160.453 25.8233ZM56.1359 24.1325V20.0869H62.1012V24.1325H56.1359ZM56.1495 39.8842V26.7209L62.1012 26.7232V39.8842H56.1495ZM86.0098 39.8842L86.0122 26.7479H82.7757V24.7942L86.0144 24.7919L86.0099 22.1265H91.9662V24.7896H95.1891V26.7478H91.9662L91.9708 39.8841L86.0098 39.8842ZM31.9298 39.8842L31.9321 20.0915H38.0991L46.6301 33.8942L46.6256 20.0915H52.7449V39.8842H46.6346L38.0586 26.0815V39.8842H31.9298Z" fill="#919191"/>
</svg>
