<svg width="200" height="60" viewBox="0 0 200 60" fill="none" xmlns="http://www.w3.org/2000/svg">
<path fill-rule="evenodd" clip-rule="evenodd" d="M152.169 30.6112C152.169 23.1326 148.546 17.2314 141.622 17.2314C134.67 17.2314 130.463 23.1326 130.463 30.5528C130.463 39.3461 135.429 43.7865 142.557 43.7865C146.034 43.7865 148.663 42.9977 150.649 41.8876V36.0449C148.663 37.0382 146.384 37.6517 143.492 37.6517C140.658 37.6517 138.146 36.6584 137.825 33.2112H152.11C152.11 32.8314 152.169 31.3123 152.169 30.6112ZM137.737 27.8359C137.737 24.5348 139.753 23.1618 141.593 23.1618C143.375 23.1618 145.274 24.5348 145.274 27.8359H137.737Z" fill="#919191"/>
<path fill-rule="evenodd" clip-rule="evenodd" d="M119.186 17.2314C116.323 17.2314 114.483 18.5753 113.46 19.5101L113.08 17.6989H106.653V51.7618L113.957 50.2135L113.986 41.9461C115.038 42.7056 116.586 43.7865 119.157 43.7865C124.386 43.7865 129.148 39.5798 129.148 30.3191C129.118 21.8472 124.298 17.2314 119.186 17.2314ZM117.433 37.3595C115.709 37.3595 114.687 36.7461 113.986 35.9865L113.957 25.1483C114.716 24.3011 115.768 23.7168 117.433 23.7168C120.092 23.7168 121.932 26.6966 121.932 30.5236C121.932 34.4382 120.121 37.3595 117.433 37.3595Z" fill="#919191"/>
<path fill-rule="evenodd" clip-rule="evenodd" d="M96.6045 15.5079L103.937 13.9303V8L96.6045 9.54831V15.5079Z" fill="#919191"/>
<path d="M103.937 17.7281H96.6045V43.2899H103.937V17.7281Z" fill="#919191"/>
<path fill-rule="evenodd" clip-rule="evenodd" d="M88.7453 19.8899L88.2779 17.7281H81.9678V43.2899H89.2711V25.9663C90.9947 23.7169 93.9161 24.1259 94.8217 24.4472V17.7281C93.8869 17.3776 90.4689 16.7349 88.7453 19.8899Z" fill="#919191"/>
<path fill-rule="evenodd" clip-rule="evenodd" d="M74.1387 11.3888L67.0107 12.9079L66.9814 36.3079C66.9814 40.6315 70.2241 43.8158 74.5477 43.8158C76.9432 43.8158 78.6961 43.3776 79.6601 42.8517V36.9214C78.7253 37.3012 74.1095 38.645 74.1095 34.3214V23.9506H79.6601V17.7281H74.1095L74.1387 11.3888Z" fill="#919191"/>
<path fill-rule="evenodd" clip-rule="evenodd" d="M54.391 25.1483C54.391 24.009 55.3258 23.5708 56.8742 23.5708C59.0944 23.5708 61.8989 24.2427 64.1191 25.4404V18.5753C61.6944 17.6112 59.2989 17.2314 56.8742 17.2314C50.9438 17.2314 47 20.3281 47 25.4989C47 33.5618 58.1011 32.2764 58.1011 35.7528C58.1011 37.0966 56.9326 37.5348 55.2966 37.5348C52.8719 37.5348 49.7753 36.5416 47.3213 35.1977V42.1505C50.0382 43.3191 52.7843 43.8157 55.2966 43.8157C61.373 43.8157 65.5506 40.8067 65.5506 35.5775C65.5213 26.8719 54.391 28.4202 54.391 25.1483Z" fill="#919191"/>
</svg>
