<svg width="200" height="60" viewBox="0 0 200 60" fill="none" xmlns="http://www.w3.org/2000/svg">
<path d="M47.3841 38.764C47.8914 40.1103 48.5937 41.2614 49.4912 42.2173C50.3887 43.1733 51.452 43.905 52.681 44.4122C53.9102 44.9195 55.2466 45.1731 56.6904 45.1731C58.0952 45.1731 59.4121 44.9097 60.6412 44.3828C61.8704 43.856 62.9434 43.1147 63.8604 42.1588C64.7773 41.2027 65.4895 40.0615 65.9968 38.7348C66.504 37.4081 66.7576 35.9254 66.7576 34.2865V9.00091H72.9033V49.9715H66.8162V46.167C65.4505 47.6106 63.8408 48.7227 61.9874 49.5033C60.1338 50.2836 58.1342 50.6738 55.9881 50.6738C53.8028 50.6738 51.7641 50.2933 49.8716 49.5324C47.9792 48.7716 46.3402 47.6889 44.9551 46.2841C43.57 44.8793 42.4773 43.1919 41.6775 41.2212C40.8775 39.2507 40.4775 37.0559 40.4775 34.6366V9H46.6232V34.2856C46.6232 35.9245 46.8768 37.4169 47.3841 38.7631V38.764Z" fill="#919191"/>
<path d="M83.4965 9.00134V23.9261C84.8621 22.5604 86.4426 21.4777 88.2374 20.6777C90.0323 19.8777 91.9834 19.4778 94.0904 19.4778C96.2756 19.4778 98.324 19.8875 100.236 20.7069C102.148 21.5263 103.806 22.6384 105.211 24.0432C106.616 25.448 107.728 27.1062 108.547 29.0182C109.367 30.9303 109.776 32.9593 109.776 35.1054C109.776 37.2514 109.367 39.2707 108.547 41.1631C107.728 43.0557 106.616 44.7043 105.211 46.1089C103.806 47.5137 102.148 48.6258 100.236 49.4452C98.324 50.2646 96.2755 50.6742 94.0904 50.6742C91.9833 50.6742 90.0226 50.2743 88.2082 49.4743C86.3937 48.6745 84.8036 47.5916 83.4379 46.226V49.9719H77.585V9.00134H83.4965ZM84.1695 39.1449C84.6962 40.3936 85.428 41.4861 86.3645 42.4226C87.301 43.3591 88.3935 44.1006 89.6421 44.6468C90.8908 45.1931 92.237 45.4662 93.6808 45.4662C95.0856 45.4662 96.4121 45.1931 97.6607 44.6468C98.9093 44.1006 99.992 43.3592 100.909 42.4226C101.826 41.4863 102.558 40.3936 103.104 39.1449C103.65 37.8962 103.923 36.5501 103.923 35.1063C103.923 33.6626 103.65 32.3066 103.104 31.0384C102.558 29.7703 101.826 28.668 100.909 27.7315C99.9922 26.7951 98.9095 26.0634 97.6607 25.5367C96.412 25.01 95.0854 24.7464 93.6808 24.7464C92.2761 24.7464 90.9494 25.0098 89.7008 25.5367C88.4522 26.0635 87.3596 26.7951 86.423 27.7315C85.4866 28.668 84.7452 29.7703 84.1989 31.0384C83.6526 32.3066 83.3795 33.6626 83.3795 35.1063C83.3794 36.5501 83.6428 37.8962 84.1695 39.1449Z" fill="#919191"/>
<path d="M113.113 29.0766C113.893 27.2036 114.966 25.5551 116.332 24.1309C117.697 22.7067 119.317 21.5848 121.19 20.7654C123.063 19.946 125.092 19.5364 127.277 19.5364C129.423 19.5364 131.413 19.9266 133.247 20.7069C135.081 21.4873 136.661 22.5702 137.988 23.9554C139.315 25.3405 140.349 26.9795 141.09 28.8719C141.831 30.7644 142.202 32.8227 142.202 35.0469V36.9784H117.912C118.107 38.1881 118.498 39.3099 119.083 40.3438C119.668 41.3778 120.4 42.2753 121.278 43.0361C122.156 43.7971 123.151 44.3922 124.263 44.8213C125.375 45.2505 126.555 45.4652 127.804 45.4652C131.355 45.4652 134.223 44.0019 136.408 41.0754L140.681 44.2359C139.198 46.226 137.364 47.7868 135.179 48.9184C132.994 50.0499 130.535 50.6157 127.804 50.6157C125.58 50.6157 123.502 50.2254 121.571 49.4451C119.639 48.6648 117.961 47.5721 116.537 46.1673C115.113 44.7625 113.991 43.114 113.172 41.2216C112.352 39.3292 111.942 37.2707 111.942 35.0467C111.942 32.9397 112.332 30.9496 113.113 29.0766H113.113ZM121.336 26.7646C119.678 28.1498 118.575 29.9936 118.029 32.2957H136.232C135.724 29.9936 134.642 28.1498 132.983 26.7646C131.325 25.3795 129.384 24.6869 127.16 24.6869C124.935 24.6869 122.994 25.3795 121.336 26.7646H121.336Z" fill="#919191"/>
<path d="M153.265 27.4383C152.016 28.804 151.392 30.6574 151.392 32.9987V49.9723H145.48V20.1215H151.333V23.8089C152.075 22.5993 153.041 21.6432 154.231 20.9409C155.421 20.2384 156.835 19.8872 158.474 19.8872H160.523V25.3891H158.064C156.114 25.3892 154.514 26.072 153.265 27.4377V27.4383Z" fill="#919191"/>
</svg>
